Coordinates
version=1
nRows=6
nColumns=36
inDegrees=yes

Units are S.I. units (second, meters, Newtons, ...)
If the header above contains a line with 'inDegrees', this indicates whether rotational values are in degrees (yes) or radians (no).

endheader
time	pelvis_tilt	pelvis_list	pelvis_rotation	pelvis_tx	pelvis_ty	pelvis_tz	hip_flexion_r	hip_adduction_r	hip_rotation_r	knee_angle_r	knee_angle_r_beta	ankle_angle_r	subtalar_angle_r	mtp_angle_r	hip_flexion_l	hip_adduction_l	hip_rotation_l	knee_angle_l	knee_angle_l_beta	ankle_angle_l	subtalar_angle_l	mtp_angle_l	lumbar_extension	lumbar_bending	lumbar_rotation	arm_flex_r	arm_add_r	arm_rot_r	elbow_flex_r	pro_sup_r	arm_flex_l	arm_add_l	arm_rot_l	elbow_flex_l	pro_sup_l
      2.86666670	    -34.82403965	     -1.90673159	     -0.09638648	      1.36791744	      0.53456847	      0.04767129	    115.21278157	    -14.23418219	      8.77840612	    109.76449754	      1.91575188	     32.55861294	      5.86778766	     -7.49999987	    114.55865704	    -10.95310500	      9.24388758	    110.60104217	      1.93035234	     20.51105661	     -2.27559166	     -7.49999987	    -44.35317164	      0.54360225	      5.85355984	     84.99126175	    -26.38360671	     19.52437515	     97.46693284	     85.29268362	     94.78403745	    -19.39170809	     43.94062981	     90.54896609	     84.30107307
      2.88333330	    -35.05282089	     -1.97173369	     -0.51160415	      1.37340569	      0.53353883	      0.05284786	    115.10540081	    -14.39597050	      8.35608981	    110.62587848	      1.93078582	     33.37112950	      6.36371530	     -7.49999987	    114.94643657	    -11.79929698	      9.65126575	    111.82861650	      1.95177756	     21.52376774	     -0.96334765	     -7.49999987	    -45.21719628	      0.21307116	      6.41220088	     83.93312918	    -24.92632288	     19.08832063	     95.73516276	     85.11936121	     93.01343960	    -18.77020828	     42.49916636	     88.77153792	     84.57741300
      2.90000000	    -34.99275106	     -1.90145225	     -0.80064973	      1.38396032	      0.53790988	      0.05299102	    114.11974370	    -14.32448780	      8.02528694	    110.83064944	      1.93435974	     34.20664909	      6.30867514	     -7.49999987	    114.37002959	    -12.56189509	      9.69701643	    112.35764066	      1.96101077	     22.30105418	     -0.79942891	     -7.49999987	    -45.41084443	     -0.48363733	      6.36909372	     80.70582152	    -24.62342829	     18.79193638	     94.25391142	     84.95981843	     90.73366475	    -18.34512547	     42.42329111	     89.69355804	     84.75376183
      2.91666670	    -35.46477585	     -2.01636392	     -1.18618396	      1.39355771	      0.54635116	      0.06117716	    112.72677626	    -13.90925354	      7.14822973	    110.08559212	      1.92135604	     34.82579653	      6.24032654	     -7.49999987	    113.39036930	    -13.60992316	      9.72979634	    111.72581562	      1.94998334	     23.44933358	      0.14352275	     -7.49999987	    -44.76617308	     -0.90203873	      5.16476269	     78.00868843	    -21.11087218	     16.74876935	     92.64609982	     83.54533587	     87.71242197	    -20.77146165	     40.95498992	     91.55650905	     86.79644959
      2.93333330	    -35.62491744	     -2.13046507	     -1.29421089	      1.39347433	      0.55195035	      0.06021550	    110.96552451	    -13.47678488	      6.35936584	    108.96974394	      1.90188082	     35.71862190	      5.86548143	     -7.49999987	    111.73169485	    -14.18147799	      9.45183983	    110.65333766	      1.93126507	     24.20527278	      0.17607185	     -7.49999987	    -44.10194892	     -1.21358093	      4.81446785	     75.62480465	    -21.34259923	     17.12379060	     92.96066160	     83.17095000	     86.13526636	    -21.39539844	     41.55892409	     91.88343941	     86.55938562
      2.95000000	    -36.57285514	     -2.25893896	     -1.22686083	      1.39220678	      0.55570190	      0.05889794	    110.24163211	    -13.15391213	      5.63390988	    107.56689848	      1.87739654	     35.83891906	      5.42948863	     -7.49999987	    110.98682028	    -14.15593842	      9.08628500	    109.19788965	      1.90586271	     24.60675449	      0.18782944	     -7.49999987	    -42.56555604	     -1.22760428	      4.68147355	     71.88559539	    -21.75849982	     15.99912842	     92.83202223	     82.31452817	     83.09133144	    -22.07600036	     40.97554109	     93.81335589	     86.27459268
